<svg xmlns="http://www.w3.org/2000/svg" viewBox="0 0 24 24">
  <!-- Wind (left) - simple, legible at small sizes. Fill matches ScryTextMuted. -->
  <g transform="translate(24 0) scale(-1 1)">
    <path fill="#A7B6CB" d="M4 11h10.6c1.5 0 2.7-1.2 2.7-2.7S16.1 5.6 14.6 5.6c-1.2 0-2.2.8-2.6 1.9l-1.6-.5C11 5.1 12.7 3.6 14.6 3.6c2.6 0 4.7 2.1 4.7 4.7S17.2 13 14.6 13H4v-2z"/>
    <path fill="#A7B6CB" d="M4 15h13.1c1.3 0 2.4-1.1 2.4-2.4S18.4 10.2 17.1 10.2c-.9 0-1.8.5-2.2 1.3l-1.7-.3c.6-1.6 2.1-2.7 3.9-2.7 2.4 0 4.4 1.9 4.4 4.2S19.5 17 17.1 17H4v-2z"/>
    <path fill="#A7B6CB" d="M4 19h7.9c1.1 0 2-.9 2-2s-.9-2-2-2H4v-2h7.9c2.2 0 4 1.8 4 4s-1.8 4-4 4H4v-2z"/>
  </g>
</svg>
